# xmcd
#
# Track frame offsets: 
#        150
#        3156
#        9663
#        19759
#        29414
#        31131
#        48480
#        53595
#        62743
#        73566
#        84845
#        96647
#        99543
#        101197
#        112990
#        127586
#        138644
#        141264
#        172056
#        180626
#        193481
#        203993
#        289265
#        298465
#        311205
#        322549
#        335741
#
# Disc length: 4530 seconds
#
# Revision: 0
# Processed by: cddbd v1.5.2PL0 Copyright (c) Steve Scherf et al.
# Submitted via: ExactAudioCopy v0.95b3
#
DISCID=9311b01b
DTITLE=The Beatles  - Rubber Soul - Purple Chick 06  Disc 3 - sessions
DTITLE=FLAC
DYEAR=1900
DGENRE=
TTITLE0=Run For Your Life - take 1 studio chat
TTITLE1=Run For Your Life - take 5
TTITLE2=This Bird Has Flown (Norwegian Wood) - take 1
TTITLE3=Day Tripper - take 1
TTITLE4=Day Tripper - take 2
TTITLE5=Day Tripper - take 3
TTITLE6=In My Life - alt solo
TTITLE7=We Can Work It Out - take 1
TTITLE8=We Can Work It Out - take 2
TTITLE9=This Bird Has Flown (Norwegian Wood) - take 2
TTITLE10=Norwegian Wood (This Bird Has Flown) - take 4
TTITLE11=In My Life - piano overdub
TTITLE12=In My Life - piano overdub (sped up)
TTITLE13=Nowhere Man - backing outfake
TTITLE14=I'm Looking Through You - take 1
TTITLE15=We Can Work It Out - take 2+overdubs
TTITLE16=12 Bar Original - take 1
TTITLE17=12 Bar Original - take 2
TTITLE18=12 Bar Original - rehearsal
TTITLE19=I'm Looking Through You - take 4
TTITLE20=Girl - monitor mix of instrumental tracks
TTITLE21=Think For Yourself - session chat
TTITLE22=Norwegian Wood (This Bird Has Flown)  - take 1 (ASP mix)
TTITLE23=Day Tripper - take 3 - alt monitor mix
TTITLE24=In My Life (alt solo complete)
TTITLE25=I'm Looking Through You (ant mix)
TTITLE26=I'm Looking Through You (ARVS mix)
EXTD=
EXTT0=
EXTT1=
EXTT2=
EXTT3=
EXTT4=
EXTT5=
EXTT6=
EXTT7=
EXTT8=
EXTT9=
EXTT10=
EXTT11=
EXTT12=
EXTT13=
EXTT14=
EXTT15=
EXTT16=
EXTT17=
EXTT18=
EXTT19=
EXTT20=
EXTT21=
EXTT22=
EXTT23=
EXTT24=
EXTT25=
EXTT26=
PLAYORDER=
